#tb 0: 66667/1000000
0,          0,          0,        1,   230400, 0xee05b509
0,          1,          1,        1,   230400, 0x23b28b24
0,          2,          2,        1,   230400, 0x4a4d6007
0,          3,          3,        1,   230400, 0xe5550693
0,          4,          4,        1,   230400, 0xad4905a3
0,          5,          5,        1,   230400, 0xc83b9030
0,          6,          6,        1,   230400, 0xbc73a26a
0,          7,          7,        1,   230400, 0x7065ff8a
0,          8,          8,        1,   230400, 0x65bc7675
0,          9,          9,        1,   230400, 0xc245737f
0,         10,         10,        1,   230400, 0x77e6c1ed
0,         11,         11,        1,   230400, 0x6761d73a
0,         12,         12,        1,   230400, 0x6207b8f8
0,         13,         13,        1,   230400, 0xa3691862
0,         14,         14,        1,   230400, 0x83fbfc24
0,         15,         15,        1,   230400, 0xe1c34ef0
0,         16,         16,        1,   230400, 0xd7b50e8e
0,         17,         17,        1,   230400, 0x5b5e2f29
0,         18,         18,        1,   230400, 0xca7825e5
0,         19,         19,        1,   230400, 0xb4c7b4a9
0,         20,         20,        1,   230400, 0xc35513b5
0,         21,         21,        1,   230400, 0x36117834
0,         22,         22,        1,   230400, 0x8af035d7
0,         23,         23,        1,   230400, 0x25c50a2e
0,         24,         24,        1,   230400, 0x52f54107
0,         25,         25,        1,   230400, 0xaddca5f9
0,         26,         26,        1,   230400, 0x3b1fe64c
0,         27,         27,        1,   230400, 0xcd52de15
0,         28,         28,        1,   230400, 0xfaa4f7fa
0,         29,         29,        1,   230400, 0xce5b3221
0,         30,         30,        1,   230400, 0xb2c3d9ba
0,         31,         31,        1,   230400, 0xf6ec95e9
0,         32,         32,        1,   230400, 0xfa7ebd18
0,         33,         33,        1,   230400, 0xb6e50465
0,         34,         34,        1,   230400, 0xd48ceee9
0,         35,         35,        1,   230400, 0x333605cf
0,         36,         36,        1,   230400, 0xe7ccf362
0,         37,         37,        1,   230400, 0x39f07b83
0,         38,         38,        1,   230400, 0xd6450b2e
0,         39,         39,        1,   230400, 0x2029ec12
0,         40,         40,        1,   230400, 0x15d7762e
0,         41,         41,        1,   230400, 0x0d69506d
0,         42,         42,        1,   230400, 0xcf2ef066
0,         43,         43,        1,   230400, 0x2c145df0
0,         44,         44,        1,   230400, 0x153d7fe7
0,         45,         45,        1,   230400, 0x98846aea
0,         46,         46,        1,   230400, 0xc0347d4e
0,         47,         47,        1,   230400, 0xda7a58a8
0,         48,         48,        1,   230400, 0x5724c05e
0,         49,         49,        1,   230400, 0x9805237b
0,         50,         50,        1,   230400, 0x2f5f0d70
0,         51,         51,        1,   230400, 0xb1271014
0,         52,         52,        1,   230400, 0x6cb29d9c
0,         53,         53,        1,   230400, 0x4f91fdb4
0,         54,         54,        1,   230400, 0x274b3f30
0,         55,         55,        1,   230400, 0xdfc508e8
0,         56,         56,        1,   230400, 0x16e974ef
0,         57,         57,        1,   230400, 0x98fae336
0,         58,         58,        1,   230400, 0xbf265f84
0,         59,         59,        1,   230400, 0x75cf323b
0,         60,         60,        1,   230400, 0xdb3481f7
0,         61,         61,        1,   230400, 0xb8453df5
0,         62,         62,        1,   230400, 0xd4598deb
0,         63,         63,        1,   230400, 0x4dc19cf6
0,         64,         64,        1,   230400, 0xa8d1b340
0,         65,         65,        1,   230400, 0x1f98aa27
0,         66,         66,        1,   230400, 0x505c0687
0,         67,         67,        1,   230400, 0x86179997
0,         68,         68,        1,   230400, 0x7e28cc7d
0,         69,         69,        1,   230400, 0x0a81c0bc
0,         70,         70,        1,   230400, 0x71cc0c9a
0,         71,         71,        1,   230400, 0x8c01340f
0,         72,         72,        1,   230400, 0x4afea48a
0,         73,         73,        1,   230400, 0x7dc88c26
0,         74,         74,        1,   230400, 0x4155fbbb
0,         75,         75,        1,   230400, 0xb1ec2d6b
0,         76,         76,        1,   230400, 0x6986ee65
0,         77,         77,        1,   230400, 0x8ff9a311
0,         78,         78,        1,   230400, 0x36c21c52
0,         79,         79,        1,   230400, 0xdb0fad2e
0,         80,         80,        1,   230400, 0xc7a83c34
0,         81,         81,        1,   230400, 0x8bd97389
0,         82,         82,        1,   230400, 0x6dd8f0d6
0,         83,         83,        1,   230400, 0x228e2076
0,         84,         84,        1,   230400, 0x22544f03
0,         85,         85,        1,   230400, 0x938084ef
0,         86,         86,        1,   230400, 0xb002cd81
0,         87,         87,        1,   230400, 0xe58d3339
0,         88,         88,        1,   230400, 0x02470a69
0,         89,         89,        1,   230400, 0xa5c51328
0,         90,         90,        1,   230400, 0x1a6e37ec
0,         91,         91,        1,   230400, 0x8f40563c
0,         92,         92,        1,   230400, 0x30f9095f
0,         93,         93,        1,   230400, 0x6227f0e8
0,         94,         94,        1,   230400, 0xdca3596d
0,         95,         95,        1,   230400, 0x30938988
0,         96,         96,        1,   230400, 0x28bdc666
0,         97,         97,        1,   230400, 0x6c534265
0,         98,         98,        1,   230400, 0x6ea56d2d
0,         99,         99,        1,   230400, 0x125f3808
0,        100,        100,        1,   230400, 0x92a41d2f
0,        101,        101,        1,   230400, 0xf1cf2410
0,        102,        102,        1,   230400, 0x1bea1204
0,        103,        103,        1,   230400, 0x817e60f9
0,        104,        104,        1,   230400, 0x9f6c720e
0,        105,        105,        1,   230400, 0xf1a43a2f
0,        106,        106,        1,   230400, 0x5e5e0b7f
0,        107,        107,        1,   230400, 0x7f526bcf
0,        108,        108,        1,   230400, 0x63a846ed
0,        109,        109,        1,   230400, 0x94400af9
0,        110,        110,        1,   230400, 0x51f4241e
